/* XPM */
static char *cursor_xpm[] = {
/* columns rows colors chars-per-pi.el */
"19 30 2 1",
"  c #00ff00",
". c #ffffff",
/* pixels */
".                  ",
"..                 ",
"...                ",
"....               ",
".....              ",
"......             ",
".......            ",
"........           ",
".........          ",
"..........         ",
"...........        ",
"............       ",
".............      ",
"..............     ",
"...............    ",
"................   ",
".................  ",
".................. ",
"..........         ",
"..........         ",
"..........         ",
"...... ....        ",
".....   ...        ",
"....    ....       ",
"...      ...       ",
"..       ...       ",
".         ...      ",
"          ...      ",
"           ...     ",
"           ...     "
};
