/* XPM */
static char * n_xpm[] = {
"16 16 2 1",
" 	c None",
".	c #ff0000",
"  ...      ...  ",
"  ...      ...  ",
"  ...      ...  ",
"  ...      ...  ",
"  ......   ...  ",
"  ......   ...  ",
"  ......   ...  ",
"  ...   ......  ",
"  ...   ......  ",
"  ...   ......  ",
"  ...      ...  ",
"  ...      ...  ",
"  ...      ...  ",
"  ...      ...  ",
"  ...      ...  ",
"  ...      ...  "};
