/* XPM */
static char * number_eight_xpm[] = {
"15 15 2 1",
" 	c None",
".	c #ff0000",
"    ......     ",
"    ......     ",
"    ......     ",
" ...      ...  ",
" ...      ...  ",
" ...      ...  ",
"    ......     ",
"    ......     ",
"    ......     ",
" ...      ...  ",
" ...      ...  ",
" ...      ...  ",
"    ......     ",
"    ......     ",
"    ......     "};
