/* XPM */
static char * number_three_xpm[] = {
"15 15 2 1",
" 	c None",
".	c #ff0000",
"    ......     ",
"    ......     ",
"    ......     ",
" ...      ...  ",
" ...      ...  ",
" ...      ...  ",
"       ...     ",
"       ...     ",
"       ...     ",
" ...      ...  ",
" ...      ...  ",
" ...      ...  ",
"    ......     ",
"    ......     ",
"    ......     "};
