/* XPM */
static char *player2[] = {
/* columns rows colors chars-per-pixel */
"76 50 134 2 ",
"   c #00FF00",
".  c #030303",
"X  c #080706",
"o  c #0A0907",
"O  c #070708",
"+  c #070808",
"@  c #0C0B0B",
"#  c #110E0C",
"$  c #0E100F",
"%  c #14120D",
"&  c #19150E",
"*  c #0E0F10",
"=  c #0F1011",
"-  c #131414",
";  c #1A1514",
":  c #161917",
">  c #1D1A14",
",  c #151618",
"<  c #181719",
"1  c #161919",
"2  c #1A1C1D",
"3  c #201614",
"4  c #221D15",
"5  c #2A1C15",
"6  c #231E1C",
"7  c #2B1D1B",
"8  c #1C211F",
"9  c #242116",
"0  c #292317",
"q  c #25211B",
"w  c #2A261A",
"e  c #2D291D",
"r  c #30211E",
"t  c #322C1D",
"y  c #1C1E21",
"u  c #1E2322",
"i  c #202625",
"p  c #2A2522",
"a  c #222927",
"s  c #2F2923",
"d  c #242629",
"f  c #252D2B",
"g  c #362420",
"h  c #3A2622",
"j  c #322C24",
"k  c #342C29",
"l  c #382F2C",
"z  c #29312F",
"x  c #373324",
"c  c #3E3724",
"v  c #3C3726",
"b  c #3A3524",
"n  c #3D3826",
"m  c #3E3826",
"M  c #3A312E",
"N  c #3D3929",
"B  c #3F3B29",
"V  c #2A3331",
"C  c #2A3431",
"Z  c #2B3431",
"A  c #2B3532",
"S  c #2C3532",
"D  c #2C3533",
"F  c #2D3734",
"G  c #2B3532",
"H  c #2D3835",
"J  c #2E3936",
"K  c #2F3936",
"L  c #303A37",
"P  c #313C39",
"I  c #313D3A",
"U  c #333F3B",
"Y  c #333F3C",
"T  c #313D3A",
"R  c #452D28",
"E  c #482F2A",
"W  c #433C27",
"Q  c #403924",
"!  c #483F27",
"~  c #403B28",
"^  c #433C28",
"/  c #403C2A",
"(  c #463F29",
")  c #443F2D",
"_  c #433C29",
"`  c #563D30",
"'  c #34403C",
"]  c #35413D",
"[  c #35423E",
"{  c #36433F",
"}  c #35423E",
"|  c #45402D",
" . c #46402C",
".. c #46402D",
"X. c #46412D",
"o. c #47412D",
"O. c #46422E",
"+. c #494029",
"@. c #49422B",
"#. c #4B432B",
"$. c #4F452B",
"%. c #49432D",
"&. c #4F462C",
"*. c #4F472F",
"=. c #4B442E",
"-. c #51472D",
";. c #52492D",
":. c #51482E",
">. c #484230",
",. c #5D4232",
"<. c #534A31",
"1. c #534B32",
"2. c #544C33",
"3. c #534D35",
"4. c #544B31",
"5. c #594E31",
"6. c #5A4F31",
"7. c #5B5134",
"8. c #5A5137",
"9. c #5C5235",
"0. c #5F5536",
"q. c #63422F",
"w. c #6A4832",
"e. c #605537",
"r. c #655937",
"t. c #615738",
"y. c #665A39",
"u. c #685B39",
"i. c #77513B",
"p. c #7D553D",
"a. c #374440",
"s. c #6F6441",
"d. c #736641",
"f. c #7D6F47",
/* pixels */
"                                                                                                                                                        ",
"                                                                                                                                                        ",
"                                                                                                                                                        ",
"                                                                                                                                                        ",
"                                                                                                                                                        ",
"                                                                                                                                                        ",
"                                                                                                                                                        ",
"                                                                                                                                                        ",
"                                                                                                                                                        ",
"                                            . .                                                                                                         ",
"                                      . . . @ @ . . .                                                                                                   ",
"                                    . o % > 9 > . @ & o X # .                                                                                           ",
"                              . . @ % 0 e 9 j 0 o @ 9 w j >.w o                                                                                         ",
"                            . o % e w 9 x m w q @ . ; t e x x j #                                                                                       ",
"                        . . 4 c 4 4 s 4 c 8.t ; . o o % w m #.e.e .                                                                                     ",
"                      . @ 0 9 e w > w 0 w 6.-.& + 9 q # % c 6.:.& .                                                                                     ",
"                      . t $.w q N 0 > > 0 t e @ & x N j ; # t 4 .                                                                                       ",
"                      . w 6.&.0 s w > > & @ & e > e 3.%.#.w o . . . . . . .                                                                             ",
"                    . X o 0 ! t w j w & # e  .) s % j s.&.^ 0 . + - 2 2 - + . . . . .                                                                   ",
"                    . 4 ; . @ @ @ ; % 0  .3. .x j 0 & t  .4.#.. + 2 A F K z , = - @ @ + .                                                               ",
"                    . 4 4 + o % # . w  .9.u.&.j w 9 & . 9 x ; % . - z I [ [ f f D f f f 2 + .                                                           ",
"                  . & t > + % e j @ e ^ <.r.W > % o @ # . @ 4 -.9 . 2 K [ [ A z V z V I F a - .                                                         ",
"                  o  .<.w @ %  .8.% w ~ ^ b & 5 5 @ 3 r # . x d.0.@ @ f I [ K f f A D Y I z u : +                                                       ",
"                  @ ) =.j % % 4.f.9 w w # . & p.i.w X + . . > :.t.w . : D [ K f A V D Y L f 8 8 - .                                                     ",
"                  . w j j ; % 4.f.w o . @ @ ; q 6 6 2 - + . . O o o . + i I I f f z V K f u u f f : .                                                   ",
"                  . 0 <.~ 4 @ ^ y.> . > p p p k k l l p 2 < # > ; # . . @ f Y V z V f u , i f K K z - .                                                 ",
"                    & Q w % . e w . > j k l l M M M k q p k > > s q > @ . - V z u u 2 - . i L [ [ I i .                                                 ",
"                    . . . . . 4 & @ p l M M M M M M j 6 j M p ; k k p 6 . . - $ . . . . . : K [ [ [ A - .                                               ",
"                        . + . . . - p k l M k k M M M p k M j ; s l k j @ . . .         . + f Y [ L A 2 .                                               ",
"                      . @ : + . . - 6 j l M k k M M M p k M k ; s l k j @ . .             . : V [ Y F a + .                                             ",
"                      + 8 u - . . % p k l M M M M M k p k M k ; j k s p @ > % .             . 2 L a.' K 2 .                                             ",
"                    . : F F a @ . O 6 j l k k l l k p 6 j M q ; p p q ; & e ; .             . + f [ [ I a +                                             ",
"                    . f [ [ K 2 . . @ q s p p k k k p 6 6 6 , > > < # X 4 > o .               . : A f f f - .                                           ",
"                  . = L a.a.[ z = . . @ ; > 6 p p p p 6 - @ # % + . . . # @ .                 . + u V K f @ . .                                         ",
"                  . 2 [ a.a.a.I u . % & . . 5 ,.` g - @ o + @ # - # . . . . . @ o               . - 2 @ . @ ; # .                                       ",
"                  . a a.a.[ [ [ V @ . & @ + % q.w.5 . # - - - ; # . . . . . @ # @ . . . . . . . . . . . + + + + . . . . . . . + + @ . . . .             ",
"                  . f a.[ [ [ I 2 . @ @ @ - @ @ @ * = = = * = @ @ + @ - - , , , , , , , < @ - - - - - @ - - , , , , , - - - , : < 2 , - - - +           ",
"                  . u [ [ [ L V $ = 2 2 2 2 2 2 2 2 2 2 2 2 2 < : - , 2 y y y 2 y y y y d 2 u u u u y - , 2 y y y y y , , , < 2 2 2 , - - @ .           ",
"                    @ K [ L A f : @ - - - - - - - - - - - , , - - @ * = , < , - ; - * @ @ + @ @ @ + + @ - - - - @ . .     . . . . O .                   ",
"                    . u I V f f A i a u f f 2 = : i f z A D F D f u a + ; h R E r X .                 . 3 7 g g @                                       ",
"                      - f a K z f K D L [ I f 8 a K a.a.[ I I Y [ f i @ . @ % ; X                       # % ; #                                         ",
"                      . @ u F V V A F [ I F f 8 a F [ [ [ K z f a , + .                                                                                 ",
"                        . . = 2 f f I I K A a 8 i A L I K f : @ . .                                                                                     ",
"                          . . . @ 2 f f f f u 8 2 u u u - + . .                                                                                         ",
"                                . . . + @ @ @ @ + . . . .                                                                                               ",
"                                                                                                                                                        ",
"                                                                                                                                                        ",
"                                                                                                                                                        ",
"                                                                                                                                                        ",
"                                                                                                                                                        "
};
