/* XPM */
static char *player3[] = {
/* columns rows colors chars-per-pixel */
"40 40 12 1 ",
"  c #00FF00",
". c #161318",
"X c #3B353D",
"o c #654F3D",
"O c #4F4C50",
"+ c #6B646E",
"@ c #91755C",
"# c #A79CA9",
"$ c #CDB28B",
"% c #EAE0AC",
"& c #F1F1BC",
"* c #FEFEFF",
/* pixels */
"                     ..OO++++.          ",
"                   ..O+O++OOOO.         ",
"             ......+++++++X....         ",
"             ..OOO++OO+++++++.          ",
"              .O+++XO+XXOXX+XX.         ",
"        ......OXXXX++XXX.......         ",
"         ....OX.XXXOXOXXO+..            ",
"        ..OO..XO..XXXXXX+++.            ",
"       .OOO+.++OX..X.......             ",
"      .OOXXOO+++OX..                    ",
"        .XX++++++O..                    ",
"       .XXXO..++XXO.                    ",
"         ..X.+.++XX.                    ",
"       ...+..O+..OX.                    ",
"     .....X+XXO+X..X.                   ",
"  ...XX++XXO$%XOO$X...                  ",
" .XXXX.OO+O+O$&XX@%XXX..                ",
" .XOX.+@$XoXO@$%@X$&+#+O.               ",
" .OXX.OO@%@$%@@o$%@$+*#+X.              ",
" .XX.OOo@@$@$%@@o$&@$+*+OX.             ",
"  .X.oo@o@@@@o$%@@$&$X+++OO.            ",
"   ..o@@@o$@$@o$%@@$$@XXOOX.            ",
"    .o@@@o$@$@o$%@@$$@XXOOX..           ",
"    .oo@o@@@@o$%@@$&$X+++OO.X.XXX       ",
"    .OOo@@$@$%@@o$&@$+*+OX.OOOOOOOOO    ",
"     .OO@%@$%@@o$%@$+*#+X.XOOOOXOOXOOX  ",
"     .+@$XoXO@$%@X$&+#+O.XOOOOOOXOOOX   ",
"      .OO+O+O$&XX@%XXX..XXOOXXOOXXOOX   ",
"       ++XXO$%XOO$X...XXXXXXXXXXXX      ",
"      ....X+XXO+X..XX.XXXX.             ",
"         .+..O+..OOXXX....              ",
"         .. .+.++O+OXX.      .....      ",
"           ...++++OXXO.     .XX++.  ..  ",
"           .XX++++++O..   ..XO+O....X.  ",
"           OXXOO+++OX.....XXXXXXXXX++.. ",
"          .+OO++++OX.XXXXXO+OXXO+++..O. ",
"          ...OOO++O..XXXXXXXO+++++X.O+. ",
"             +......+OOXOO+++OO++++O+.  ",
"            .. . .XXO..O+OOX++++OO++.   ",
"                  ... .+O...........    "
};
